<svg xmlns="http://www.w3.org/2000/svg" width="420" height="390" viewBox="0 0 420 390" role="img">
<rect width="100%" height="100%" fill="#FFFFFF"/>
<line x1="62.00" y1="334.00" x2="396.00" y2="334.00" stroke="#E5E7EB" stroke-width="0.90"/>
<line x1="58.00" y1="334.00" x2="62.00" y2="334.00" stroke="#111827" stroke-width="1.00"/>
<text x="54.00" y="338.00" font-size="10.00" font-family="Arial, DejaVu Sans, sans-serif" font-weight="400" text-anchor="end" fill="#6B7280">0</text>
<line x1="62.00" y1="274.00" x2="396.00" y2="274.00" stroke="#E5E7EB" stroke-width="0.90"/>
<line x1="58.00" y1="274.00" x2="62.00" y2="274.00" stroke="#111827" stroke-width="1.00"/>
<text x="54.00" y="278.00" font-size="10.00" font-family="Arial, DejaVu Sans, sans-serif" font-weight="400" text-anchor="end" fill="#6B7280">5</text>
<line x1="62.00" y1="214.00" x2="396.00" y2="214.00" stroke="#E5E7EB" stroke-width="0.90"/>
<line x1="58.00" y1="214.00" x2="62.00" y2="214.00" stroke="#111827" stroke-width="1.00"/>
<text x="54.00" y="218.00" font-size="10.00" font-family="Arial, DejaVu Sans, sans-serif" font-weight="400" text-anchor="end" fill="#6B7280">10</text>
<line x1="62.00" y1="154.00" x2="396.00" y2="154.00" stroke="#E5E7EB" stroke-width="0.90"/>
<line x1="58.00" y1="154.00" x2="62.00" y2="154.00" stroke="#111827" stroke-width="1.00"/>
<text x="54.00" y="158.00" font-size="10.00" font-family="Arial, DejaVu Sans, sans-serif" font-weight="400" text-anchor="end" fill="#6B7280">15</text>
<line x1="62.00" y1="94.00" x2="396.00" y2="94.00" stroke="#E5E7EB" stroke-width="0.90"/>
<line x1="58.00" y1="94.00" x2="62.00" y2="94.00" stroke="#111827" stroke-width="1.00"/>
<text x="54.00" y="98.00" font-size="10.00" font-family="Arial, DejaVu Sans, sans-serif" font-weight="400" text-anchor="end" fill="#6B7280">20</text>
<line x1="62.00" y1="34.00" x2="396.00" y2="34.00" stroke="#E5E7EB" stroke-width="0.90"/>
<line x1="58.00" y1="34.00" x2="62.00" y2="34.00" stroke="#111827" stroke-width="1.00"/>
<text x="54.00" y="38.00" font-size="10.00" font-family="Arial, DejaVu Sans, sans-serif" font-weight="400" text-anchor="end" fill="#6B7280">25</text>
<line x1="62.00" y1="34.00" x2="62.00" y2="334.00" stroke="#111827" stroke-width="1.00"/>
<line x1="62.00" y1="334.00" x2="396.00" y2="334.00" stroke="#111827" stroke-width="1.00"/>
<text x="62.00" y="18.00" font-size="15.50" font-family="Arial, DejaVu Sans, sans-serif" font-weight="700" text-anchor="start" fill="#111827">Aggregate archive bytes</text>
<text x="18.00" y="184.00" font-size="12.50" font-family="Arial, DejaVu Sans, sans-serif" font-weight="400" text-anchor="middle" fill="#111827" transform="rotate(-90.00 18.00 184.00)">Archive size (GiB)</text>
<rect x="140.22" y="156.59" width="64.00" height="177.41" fill="#355c7d" stroke="none" opacity="0.920" rx="0.00"/>
<text x="172.22" y="356.00" font-size="11.00" font-family="Arial, DejaVu Sans, sans-serif" font-weight="400" text-anchor="middle" fill="#111827">B0</text>
<text x="172.22" y="148.59" font-size="10.50" font-family="Arial, DejaVu Sans, sans-serif" font-weight="400" text-anchor="middle" fill="#111827">14.78 GiB</text>
<rect x="270.48" y="134.02" width="64.00" height="199.98" fill="#f67280" stroke="none" opacity="0.920" rx="0.00"/>
<text x="302.48" y="356.00" font-size="11.00" font-family="Arial, DejaVu Sans, sans-serif" font-weight="400" text-anchor="middle" fill="#111827">B1</text>
<text x="302.48" y="126.02" font-size="10.50" font-family="Arial, DejaVu Sans, sans-serif" font-weight="400" text-anchor="middle" fill="#111827">16.67 GiB</text>
<text x="302.48" y="106.02" font-size="12.00" font-family="Arial, DejaVu Sans, sans-serif" font-weight="700" text-anchor="middle" fill="#6B7280">+12.72%</text>
</svg>
